<?xml version="1.0" standalone="no"?><!DOCTYPE svg PUBLIC "-//W3C//DTD SVG 1.1//EN" "http://www.w3.org/Graphics/SVG/1.1/DTD/svg11.dtd"><svg t="1595558410858" class="icon" viewBox="0 0 1024 1024" version="1.1" xmlns="http://www.w3.org/2000/svg" p-id="2341" width="64" height="64" xmlns:xlink="http://www.w3.org/1999/xlink"><defs><style type="text/css"></style></defs><path d="M894.886957 113.530435 129.113043 113.530435c-69.008696 0-126.886957 57.878261-126.886957 126.886957l0 540.93913c0 69.008696 57.878261 126.886957 126.886957 126.886957l763.547826 0c69.008696 0 126.886957-57.878261 126.886957-126.886957L1019.547826 240.417391C1021.773913 171.408696 963.895652 113.530435 894.886957 113.530435L894.886957 113.530435zM957.217391 814.747826c0 20.034783-13.356522 31.165217-31.165217 31.165217L97.947826 845.913043C80.13913 845.913043 66.782609 832.556522 66.782609 814.747826L66.782609 209.252174C66.782609 191.443478 80.13913 178.086957 97.947826 178.086957l828.104348 0C943.86087 178.086957 957.217391 191.443478 957.217391 209.252174L957.217391 814.747826 957.217391 814.747826z" p-id="2342" fill="#2c2c2c"></path><path d="M808.069565 311.652174 534.26087 540.93913c-13.356522 13.356522-31.165217 13.356522-46.747826 0L213.704348 311.652174c-13.356522-8.904348-31.165217-8.904348-42.295652 2.226087-13.356522 13.356522-13.356522 35.617391 2.226087 46.747826l309.426087 258.226087c15.582609 13.356522 42.295652 13.356522 57.878261 0l309.426087-258.226087c13.356522-13.356522 15.582609-35.617391 2.226087-46.747826C839.234783 302.747826 821.426087 302.747826 808.069565 311.652174L808.069565 311.652174z" p-id="2343" fill="#2c2c2c"></path></svg>