<?xml version="1.0" standalone="no"?><!DOCTYPE svg PUBLIC "-//W3C//DTD SVG 1.1//EN" "http://www.w3.org/Graphics/SVG/1.1/DTD/svg11.dtd"><svg t="1595557786314" class="icon" viewBox="0 0 1024 1024" version="1.1" xmlns="http://www.w3.org/2000/svg" p-id="2081" width="64" height="64" xmlns:xlink="http://www.w3.org/1999/xlink"><defs><style type="text/css"></style></defs><path d="M862.130867 189.486632 160.682098 189.486632c-48.423873 0-87.676875 39.253002-87.676875 87.683015l0 467.617164c0 48.423873 39.253002 87.677898 87.676875 87.677898l701.44877 0c48.422849 0 87.676875-39.253002 87.676875-87.677898L949.807742 277.169647C949.807742 228.739635 910.553717 189.486632 862.130867 189.486632L862.130867 189.486632zM922.323784 718.878744c0 48.63058-39.420825 88.052428-88.055498 88.052428L188.540585 806.931173c-48.63058 0-88.051405-39.420825-88.051405-88.052428L100.48918 303.072597c0-48.63058 39.419801-88.051405 88.051405-88.051405l645.728724 0c48.63365 0 88.055498 39.420825 88.055498 88.051405L922.324808 718.878744 922.323784 718.878744zM849.296561 683.552168l19.10001-22.284539L675.252643 495.711012 829.498656 341.470115l-21.271466-21.276582L491.68993 636.719536l-297.546743-297.547767-20.75572 20.750603 150.59895 150.606113-169.57207 169.566954 21.661346 21.663392 169.573093-169.574117 146.722666 146.729829 20.594037-20.923542L654.440641 516.527107 849.296561 683.552168zM849.296561 683.552168" p-id="2082" fill="#e6e6e6"></path></svg>