<?xml version="1.0" standalone="no"?><!DOCTYPE svg PUBLIC "-//W3C//DTD SVG 1.1//EN" "http://www.w3.org/Graphics/SVG/1.1/DTD/svg11.dtd"><svg t="1595557454660" class="icon" viewBox="0 0 1024 1024" version="1.1" xmlns="http://www.w3.org/2000/svg" p-id="724" width="64" height="64" xmlns:xlink="http://www.w3.org/1999/xlink"><defs><style type="text/css"></style></defs><path d="M726.868719 527.643282c-34.726919-6.738471-17.84953-25.461905-17.84953-25.461905s33.977859-56.023968-6.715959-96.765881c-50.479695-50.430576-173.108616 6.441713-173.108616 6.441713-46.833655 14.527878-34.401508-6.641257-27.785833-42.666752 0-42.441625-14.553461-114.264417-139.30472-71.825862-124.650975 42.641169-231.650941 192.08276-231.65094 192.08276-74.423013 99.311867-64.560388 176.079274-64.560388 176.079274 18.571984 169.436994 198.621686 215.971843 338.649883 226.957035 147.319254 11.585873 346.166067-50.7785 406.456199-178.850387 60.318784-128.268362-49.252751-179.049932-84.130096-185.989995zM415.455153 844.701404c-146.245805 6.840802-264.48065-66.50774-264.48065-164.097382 0-97.685833 118.234845-176.076204 264.48065-182.817745 146.345066-6.741541 264.830621 53.575196 264.830621 151.087067 0 97.589642-118.485555 189.186803-264.830621 195.82806zM386.270461 562.14712c-147.094126 17.225313-130.09394 155.031912-130.093941 155.031913s-1.49812 43.615357 39.445384 65.833381c86.080517 46.608527 174.680415 18.399045 219.466434-39.419802 44.814672-57.844429 18.501376-198.522426-128.817877-181.445492zM349.171518 755.550968c-27.461445 3.221368-49.604768-12.608156-49.604768-35.600822 0-22.8668 19.672038-46.833655 47.13246-49.705052 31.556717-2.996241 52.077076 15.177678 52.077076 38.146808 0.001023 22.893406-22.242584 44.037982-49.604768 47.159066zm86.704734-73.872474c-9.287527 6.941086-20.745487 5.992481-25.663496-2.346441-5.117554-8.137331-3.195785-21.170159 6.217608-28.010961 10.908444-8.137331 22.243607-5.789866 27.136034 2.346441 4.943592 8.338922 1.397836 20.847817-7.690146 28.010961zM798.520619 467.978391c11.833513 0 21.919219-8.789177 23.61586-20.223601 0.199545-0.848321 0.298805-1.597381 0.298806-2.545986 17.974373-161.522744-132.339074-133.73691-132.339074-133.73691-13.357216 0-24.043602 10.80816-24.043603 24.26566 0 13.257955 10.686387 24.040533 24.043603 24.040532 107.97313-23.815405 84.154655 84.134189 84.154655 84.134189 0.001023 13.380752 10.886955 24.066115 24.269753 24.066116zM780.99343 186.022741c-51.977815-12.183484-105.427144-1.674129-120.405277 1.196245-1.173732 0.099261-2.24718 1.199315-3.320628 1.398859-0.50142 0.099261-0.848321 0.649799-0.848321 0.6498-14.730493 4.195555-25.541723 17.851577-25.541723 34.003441 0 19.22383 15.604396 35.051307 35.07689 35.051307 0 0 18.925025-2.520403 31.730679-7.538696 12.70844-5.117554 120.381741-3.818979 173.832093 85.980233 29.183669 65.531506 12.833283 109.394503 10.785648 116.434849 0 0-6.941086 17.028838-6.941086 33.803897 0 19.346627 15.629979 31.505551 34.951023 31.505551 16.177448 0 29.734208-2.196015 33.703613-29.557176l0.199545 0c57.420781-191.335746-70.227458-281.20966-163.222456-302.92831z" p-id="725" fill="#e6e6e6"></path></svg>